# Blender v2.78 (sub 5) OBJ File: 'lathe2.blend'
# www.blender.org
mtllib lefttop.mtl
o lefttop
v 1.000000 1.000000 1.300000
v 0.000000 1.000000 1.300000
v 1.000000 2.000000 1.300000
v 1.000000 2.000000 2.000000
v 0.000000 2.000000 1.300000
v 1.000000 1.000000 2.000000
v 0.000000 1.000000 2.000000
v 0.000000 2.000000 2.000000
v 1.000000 1.200000 2.000000
v 1.000000 1.800000 1.300000
v -0.000000 1.800000 2.000000
v -0.000000 1.800000 1.300000
v 1.000000 1.800000 2.000000
v 1.000000 1.200000 1.300000
v 0.850000 1.200000 2.000000
v 0.850000 1.800000 2.000000
v 0.850000 1.000000 2.000000
v 0.850000 1.800000 1.300000
v 0.850000 2.000000 2.000000
v 0.850000 2.000000 1.300000
v 0.850000 1.200000 1.300000
v 0.850000 1.000000 1.300000
v -0.000000 1.200000 2.000000
v -0.000000 1.200000 1.300000
vt 0.367188 0.359375
vt 0.473438 0.359375
vt 0.473438 0.382812
vt 0.367188 0.382812
vt 0.609375 0.359375
vt 0.609375 0.382812
vt 0.590625 0.382812
vt 0.590625 0.359375
vt 0.473438 0.390625
vt 0.473438 0.460938
vt 0.367188 0.460938
vt 0.367188 0.390625
vt 0.148438 0.320312
vt 0.148438 0.343750
vt 0.235938 0.343750
vt 0.235938 0.320312
vt 0.359375 0.359375
vt 0.359375 0.382812
vt 0.253125 0.382812
vt 0.253125 0.359375
vt 0.253125 0.390625
vt 0.359375 0.390625
vt 0.359375 0.460938
vt 0.253125 0.460938
vt 0.523438 0.559375
vt 0.523438 0.539062
vt 0.618750 0.539062
vt 0.618750 0.559375
vt 0.148438 0.492188
vt 0.235938 0.492188
vt 0.235938 0.468750
vt 0.148438 0.468750
vt 0.235938 0.378125
vt 0.148438 0.378125
vt 0.148438 0.359375
vt 0.235938 0.359375
vt 0.235938 0.515625
vt 0.235938 0.539062
vt 0.148438 0.539062
vt 0.148438 0.515625
vt 0.148438 0.460938
vt 0.235938 0.460938
vt 0.235938 0.390625
vt 0.148438 0.390625
vt 0.359375 0.492188
vt 0.253125 0.492188
vt 0.253125 0.468750
vt 0.359375 0.468750
vt 0.590625 0.484375
vt 0.590625 0.460938
vt 0.609375 0.460938
vt 0.609375 0.484375
vt 0.473438 0.492188
vt 0.367188 0.492188
vt 0.367188 0.468750
vt 0.473438 0.468750
vt 0.590625 0.398438
vt 0.609375 0.398438
vt 0.609375 0.421875
vt 0.590625 0.421875
vt 0.590625 0.453125
vt 0.590625 0.429688
vt 0.609375 0.429688
vt 0.609375 0.453125
vt 0.265625 0.565625
vt 0.353125 0.565625
vt 0.353125 0.671875
vt 0.265625 0.671875
vt 0.571875 0.492188
vt 0.484375 0.492188
vt 0.484375 0.468750
vt 0.571875 0.468750
vt 0.618750 0.565625
vt 0.618750 0.671875
vt 0.523438 0.671875
vt 0.523438 0.565625
vt 0.571875 0.359375
vt 0.571875 0.382812
vt 0.484375 0.382812
vt 0.484375 0.359375
vt 0.571875 0.460938
vt 0.484375 0.460938
vt 0.484375 0.390625
vt 0.571875 0.390625
vt 0.265625 0.559375
vt 0.265625 0.539062
vt 0.353125 0.539062
vt 0.353125 0.559375
vn 0.0000 0.0000 1.0000
vn 1.0000 0.0000 0.0000
vn 0.0000 0.0000 -1.0000
vn 0.0000 -1.0000 0.0000
vn 0.0000 1.0000 0.0000
vn -1.0000 0.0000 0.0000
usemtl lathebase
s off
f 7/1/1 17/2/1 15/3/1 23/4/1
f 6/5/1 9/6/1 15/7/1 17/8/1
f 15/9/1 16/10/1 11/11/1 23/12/1
f 9/13/2 6/14/2 1/15/2 14/16/2
f 2/17/3 24/18/3 21/19/3 22/20/3
f 21/21/3 24/22/3 12/23/3 18/24/3
f 22/25/4 1/26/4 6/27/4 17/28/4
f 16/29/4 18/30/4 10/31/4 13/32/4
f 21/33/5 15/34/5 9/35/5 14/36/5
f 10/37/2 3/38/2 4/39/2 13/40/2
f 15/41/2 21/42/2 18/43/2 16/44/2
f 5/45/3 20/46/3 18/47/3 12/48/3
f 18/49/3 20/50/3 3/51/3 10/52/3
f 19/53/1 8/54/1 11/55/1 16/56/1
f 16/57/1 13/58/1 4/59/1 19/60/1
f 22/61/3 21/62/3 14/63/3 1/64/3
f 19/65/5 20/66/5 5/67/5 8/68/5
f 12/69/6 11/70/6 8/71/6 5/72/6
f 17/73/4 7/74/4 2/75/4 22/76/4
f 24/77/6 2/78/6 7/79/6 23/80/6
f 24/81/6 23/82/6 11/83/6 12/84/6
f 19/85/5 4/86/5 3/87/5 20/88/5
