# Blender v2.78 (sub 5) OBJ File: 'lathe2.blend'
# www.blender.org
mtllib toolblade.mtl
o toolblade
v 0.250000 2.020970 1.040000
v 0.250000 2.020970 1.290000
v 0.750000 2.020970 1.290000
v 0.500000 1.770970 1.040000
v 0.750000 1.770972 1.290000
v 0.250000 1.770972 1.290000
v 0.750000 2.020970 0.003000
v 0.750000 2.020970 1.040000
v 0.250000 2.020970 0.003000
v 0.500000 1.770970 0.003000
v 0.750000 1.770970 1.040000
v 0.250000 1.770970 1.040000
v 0.750000 2.220970 1.040000
v 0.250000 2.220970 1.290000
v 0.250000 2.220970 1.040000
v 0.750000 2.220970 1.290000
v 0.250000 1.320970 1.440000
v 0.750000 1.320970 1.440000
v 0.250000 2.220970 1.440000
v 0.750000 2.220970 1.440000
v 0.250000 1.320970 1.840000
v 0.750000 1.320970 1.840001
v 0.250000 2.220970 1.840000
v 0.750000 2.220970 1.840001
v 0.250000 2.120970 1.290000
v 0.750000 2.120970 1.290000
v 0.250000 2.120970 1.440000
v 0.750000 2.120970 1.440000
v 0.250000 2.120970 1.040000
v 0.750000 2.120970 1.040000
v 0.750000 2.020970 -0.060000
v 0.250000 2.120970 0.003000
v 0.250000 2.020970 -0.060000
v 0.250000 2.120970 -0.060000
v 0.750000 2.120970 -0.060000
v 0.750000 2.120970 0.003000
v 0.250000 2.120970 1.840000
v 0.750000 2.120970 1.840001
vt 0.582813 0.945312
vt 0.612500 0.945312
vt 0.612500 0.974219
vt 0.582813 0.974219
vt 0.617188 0.882812
vt 0.617188 0.869531
vt 0.582812 0.869531
vt 0.582812 0.882812
vt 0.710938 0.958594
vt 0.710938 0.929688
vt 0.750000 0.929688
vt 0.781250 0.929688
vt 0.781250 0.958594
vt 0.757812 0.914062
vt 0.757812 0.785156
vt 0.785156 0.785156
vt 0.785156 0.914062
vt 0.742188 0.914062
vt 0.714844 0.914062
vt 0.714844 0.785156
vt 0.742188 0.785156
vt 0.582812 0.828125
vt 0.582812 0.857031
vt 0.617188 0.857031
vt 0.617188 0.828125
vt 0.582813 0.986719
vt 0.582813 1.000000
vt 0.565625 1.000000
vt 0.565625 0.986719
vt 0.632812 0.786719
vt 0.695312 0.786719
vt 0.695312 0.877344
vt 0.632812 0.877344
vt 0.612500 0.986719
vt 0.565625 0.882812
vt 0.565625 0.869531
vt 0.612500 1.000000
vt 0.380469 0.886719
vt 0.380469 0.875000
vt 0.392969 0.875000
vt 0.392969 0.886719
vt 0.437500 0.908594
vt 0.375000 0.908594
vt 0.375000 0.896094
vt 0.437500 0.896094
vt 0.445312 0.738281
vt 0.445312 0.726562
vt 0.507812 0.726562
vt 0.507812 0.738281
vt 0.437500 0.941406
vt 0.437500 0.953125
vt 0.375000 0.953125
vt 0.375000 0.941406
vt 0.432031 0.875000
vt 0.432031 0.886719
vt 0.419531 0.886719
vt 0.419531 0.875000
vt 0.773438 1.000000
vt 0.710938 1.000000
vt 0.742188 0.968750
vt 0.565625 0.896094
vt 0.515625 0.896094
vt 0.515625 0.986719
vt 0.565625 0.986719
vt 0.698438 0.888281
vt 0.698438 0.978906
vt 0.625000 0.978906
vt 0.625000 0.888281
vt 0.565625 0.778906
vt 0.515625 0.778906
vt 0.515625 0.869531
vt 0.625000 0.992188
vt 0.698438 0.992188
vt 0.796875 0.995312
vt 0.796875 0.921875
vt 0.846875 0.921875
vt 0.846875 0.995312
vt 0.515625 0.882812
vt 0.515625 1.000000
vt 0.515625 0.986719
vt 0.445312 1.000000
vt 0.445312 0.950000
vt 0.507812 0.950000
vt 0.507812 1.000000
vt 0.445312 0.932813
vt 0.507812 0.932813
vt 0.632812 0.778125
vt 0.632812 0.760938
vt 0.695312 0.760938
vt 0.695312 0.778125
vt 0.695312 0.739844
vt 0.695312 0.752344
vt 0.632812 0.752344
vt 0.632812 0.739844
vt 0.695312 0.732031
vt 0.632812 0.732031
vt 0.632812 0.703125
vt 0.695312 0.703125
vt 0.507812 0.903125
vt 0.445312 0.903125
vt 0.507812 0.885156
vt 0.507812 0.898438
vt 0.445312 0.898438
vt 0.445312 0.885156
vt 0.507812 0.867188
vt 0.445312 0.867188
vt 0.419531 0.738281
vt 0.432031 0.738281
vt 0.432031 0.867188
vt 0.419531 0.867188
vt 0.392969 0.738281
vt 0.392969 0.867188
vt 0.380469 0.867188
vt 0.380469 0.738281
vt 0.515625 0.760938
vt 0.515625 0.726562
vt 0.546875 0.726562
vt 0.578125 0.726562
vt 0.578125 0.760938
vn 1.0000 -0.0000 0.0000
vn -1.0000 0.0000 0.0000
vn 0.0000 0.0000 -1.0000
vn 0.7071 -0.7071 0.0000
vn -0.7071 -0.7071 0.0000
vn 0.0000 1.0000 -0.0000
vn -0.0000 -1.0000 0.0000
vn -0.0000 0.0000 1.0000
usemtl lathebase
s off
f 5/1/1 11/2/1 8/3/1 3/4/1
f 15/5/2 29/6/2 25/7/2 14/8/2
f 8/9/3 11/10/3 4/11/3
f 4/11/3 12/12/3 1/13/3
f 4/14/4 10/15/4 7/16/4 8/17/4
f 4/18/5 1/19/5 9/20/5 10/21/5
f 6/22/2 2/23/2 1/24/2 12/25/2
f 26/26/1 16/27/1 20/28/1 28/29/1
f 1/24/2 2/23/2 25/7/2 29/6/2
f 18/30/3 17/31/3 27/32/3 28/33/3
f 8/3/1 30/34/1 26/26/1 3/4/1
f 19/35/2 14/8/2 25/7/2 27/36/2
f 13/37/1 16/27/1 26/26/1 30/34/1
f 32/38/2 34/39/2 33/40/2 9/41/2
f 34/42/3 35/43/3 31/44/3 33/45/3
f 36/46/6 35/47/6 34/48/6 32/49/6
f 9/50/7 33/51/7 31/52/7 7/53/7
f 35/54/1 36/55/1 7/56/1 31/57/1
f 9/58/3 7/59/3 10/60/3
f 28/61/1 38/62/1 22/63/1 18/64/1
f 22/65/8 38/66/8 37/67/8 21/68/8
f 27/36/2 17/69/2 21/70/2 37/71/2
f 23/72/8 37/67/8 38/66/8 24/73/8
f 22/74/7 21/75/7 17/76/7 18/77/7
f 23/78/2 19/35/2 27/36/2 37/71/2
f 28/29/1 20/28/1 24/79/1 38/80/1
f 24/81/6 20/82/6 19/83/6 23/84/6
f 19/83/6 20/82/6 16/85/6 14/86/6
f 26/87/7 28/88/7 27/89/7 25/90/7
f 3/91/8 26/92/8 25/93/8 2/94/8
f 3/95/8 2/96/8 6/97/8 5/98/8
f 15/99/6 14/86/6 16/85/6 13/100/6
f 29/101/3 15/102/3 13/103/3 30/104/3
f 36/46/6 32/49/6 29/105/6 30/106/6
f 7/107/1 36/108/1 30/109/1 8/110/1
f 9/111/2 1/112/2 29/113/2 32/114/2
f 6/115/7 12/116/7 4/117/7
f 11/118/7 5/119/7 4/117/7
f 5/119/7 6/115/7 4/117/7
